<svg xmlns="http://www.w3.org/2000/svg" width="102.267" height="61.189" viewBox="0 0 102.267 61.189">
  <g id="Group_457" data-name="Group 457" transform="translate(541 -332)">
    <g id="Group_34" data-name="Group 34" transform="translate(-541 332)">
      <path id="Path_65" data-name="Path 65" d="M137.4.082,120.378,0c-6.767.041-1.394,2.42-.205,3.773,7.341,3.855,10.54,13.616,11.114,23.171a74.449,74.449,0,0,1,1.271,10.622,1.088,1.088,0,0,0,.246-.205V4.265c14.969-.779,25.017,5.455,24.73,26.862-3.281,23.212-13.329,26.288-24.73,25.509v-.164a7.322,7.322,0,0,1-.943-.082h-.205a.311.311,0,0,1-.164-.082,4.118,4.118,0,0,1-2.42-1.189h0s-.738.533-.246-.246c.492-.738-.574-.082-.82-.369-.205-.246-.369-.451-.574-.7a1.834,1.834,0,0,1-.246-1.148s-.779-1.353-1.066-2.01c-.943-2.051-1.148-5.29-1.681-6.644s.041-.41.123-.574a16.108,16.108,0,0,1,.369-3.691c-2.3-3.814-1.23-8.981-1.189-13.206a1.087,1.087,0,0,1,.738-1.066,10.327,10.327,0,0,0-.615-2.83,36.514,36.514,0,0,0-3.4-5.414V56.514c0,.615-1.189,1.558-2.133,2.338a7.56,7.56,0,0,0,3.281,1.517h14.969c23.541.205,33.834-11.319,34.7-28.626C172.093,6.316,153.392-.164,137.4.082Z" transform="translate(-69.032)" fill="#f7f7f7"/>
      <path id="Path_66" data-name="Path 66" d="M57.17,20.555a29.881,29.881,0,0,0-6.439-9.638,30.292,30.292,0,0,0-9.474-6.439A28.207,28.207,0,0,0,29.692,2.1,28.015,28.015,0,0,0,18.168,4.479a30.328,30.328,0,0,0-9.433,6.439,29.553,29.553,0,0,0-6.4,9.638A29.85,29.85,0,0,0,0,32.325,30.021,30.021,0,0,0,8.735,53.61a29.377,29.377,0,0,0,9.474,6.439,28.207,28.207,0,0,0,11.565,2.379,28.848,28.848,0,0,0,9.843-1.681,31.5,31.5,0,0,0,5.783-2.83c0-1.64-.041-3.281-.041-4.962,0-.943-.041-1.887-.082-2.83,0-.164-.164-5.167-.164-5.167s-.041-.738-.041-1.107c0-.533-.041-1.066-.041-1.6a18.923,18.923,0,0,1-2.379,3.035,18.417,18.417,0,0,1-5.783,3.978,17.786,17.786,0,0,1-14.19,0A18.417,18.417,0,0,1,16.9,45.285,19.391,19.391,0,0,1,12.96,39.42a17.478,17.478,0,0,1-1.435-7.136,18.286,18.286,0,0,1,1.435-7.218A18.67,18.67,0,0,1,16.9,19.2a18.417,18.417,0,0,1,5.783-3.978,17.786,17.786,0,0,1,14.19,0A18.9,18.9,0,0,1,42.652,19.2a19.391,19.391,0,0,1,3.937,5.865,17.728,17.728,0,0,1,1.435,7.218c0,.205-.041.369-.041.574.041,2.707.082,4.06.082,4.06V36.8c-.164,3.773-.205,7.71-.205,11.729,0,2.584.041,5.126.123,7.587h0v.451c0,.533,0,1.066.041,1.6.082.328.205.656.287.984A5.715,5.715,0,0,0,52,61.608h7.505V32.325A28.472,28.472,0,0,0,57.17,20.555Z" transform="translate(0 -1.239)" fill="#f7f7f7"/>
    </g>
  </g>
</svg>
